<svg xmlns="http://www.w3.org/2000/svg" viewBox="-4955.887 1888.491 93.774 70.591">
  <defs>
    <style>
      .cls-1 {
        fill: #52ae32;
      }

      .cls-1, .cls-2 {
        stroke: #282e35;
      }

      .cls-2 {
        fill: #fff;
      }
    </style>
  </defs>
  <g id="Group_2937" data-name="Group 2937" transform="translate(-4955.387 1889.006)">
    <path id="Path_223" data-name="Path 223" class="cls-1" d="M128.959,110.278l9.658,5.8a1.951,1.951,0,0,0,2.664-.67,1.922,1.922,0,0,0-.67-2.646l-9.658-5.8a1.934,1.934,0,0,0-1.993,3.316Z" transform="translate(-104.823 -87.361)"/>
    <path id="Path_224" data-name="Path 224" class="cls-1" d="M192.959,88.878l9.658,5.8a1.951,1.951,0,0,0,2.664-.67,1.922,1.922,0,0,0-.67-2.646l-9.658-5.8a1.934,1.934,0,0,0-1.993,3.316Z" transform="translate(-157.226 -69.839)"/>
    <path id="Path_225" data-name="Path 225" class="cls-1" d="M256.959,67.578l9.658,5.8a1.951,1.951,0,0,0,2.664-.67,1.922,1.922,0,0,0-.67-2.646l-9.658-5.8a1.934,1.934,0,0,0-1.993,3.316Z" transform="translate(-209.63 -52.399)"/>
    <path id="Path_226" data-name="Path 226" class="cls-1" d="M320.959,46.278l9.658,5.8a1.951,1.951,0,0,0,2.664-.67,1.922,1.922,0,0,0-.67-2.646l-9.658-5.8a1.934,1.934,0,0,0-1.993,3.316Z" transform="translate(-262.033 -34.958)"/>
    <path id="Path_227" data-name="Path 227" class="cls-2" d="M92.72,17.209a1.716,1.716,0,0,0-.127-.525,1.829,1.829,0,0,0-.127-.272,1.48,1.48,0,0,0-.344-.4c-.054-.054-.072-.127-.145-.163-.018-.018-.072-.018-.091-.036-.036-.018-.054-.054-.091-.072L64.743.249A1.915,1.915,0,0,0,63.2.085L1.359,19.42c-.091.018-.145.091-.236.127-.054.018-.109.018-.163.036-.036.018-.054.072-.091.091a1.941,1.941,0,0,0-.544.544c-.018.036-.054.054-.072.109a2.077,2.077,0,0,0-.236.87c0,.018-.018.036-.018.072V52.181a1.926,1.926,0,0,0,.978,1.685L28.032,69.322a2,2,0,0,0,.96.254,1.679,1.679,0,0,0,.58-.091L91.416,50.151A1.925,1.925,0,0,0,92.775,48.3V17.39A.532.532,0,0,0,92.72,17.209ZM63.547,4.018,86.034,16.865,29.228,34.622,6.741,21.775ZM27.053,64.3,3.86,51.057V24.584L27.053,37.829ZM88.915,46.89,30.931,65.01V38.138l57.984-18.12Z" transform="translate(0 0)"/>
  </g>
</svg>
