<svg xmlns="http://www.w3.org/2000/svg" viewBox="-5327.937 1870.452 90.673 88.913">
  <defs>
    <style>
      .cls-1 {
        fill: none;
        stroke: #fff;
        stroke-miterlimit: 10;
        stroke-width: 2px;
      }

      .cls-2 {
        fill: #52ae32;
      }
    </style>
  </defs>
  <g id="Group_2936" data-name="Group 2936" transform="translate(-5327.907 1870.4)">
    <path id="Path_199" data-name="Path 199" class="cls-1" d="M45.307,32.385,18.346,17.1,2,26.441,45.307,51.066,88.613,26.441,72.055,17.1Zm0,0" transform="translate(0 17.854)"/>
    <path id="Path_200" data-name="Path 200" class="cls-1" d="M45.307,41.4,18.346,25.9,2,35.241,45.307,60.078,88.613,35.453,72.055,25.9Zm0,0" transform="translate(0 27.735)"/>
    <path id="Path_201" data-name="Path 201" class="cls-2" d="M36.6,18.9a1.7,1.7,0,1,1-3.4,0,1.826,1.826,0,0,1,1.7-1.7,1.674,1.674,0,0,1,1.7,1.7Zm0,0" transform="translate(35.034 17.966)"/>
    <path id="Path_202" data-name="Path 202" class="cls-2" d="M39,21.2a1.7,1.7,0,0,1-3.4,0,1.826,1.826,0,0,1,1.7-1.7A1.674,1.674,0,0,1,39,21.2Zm0,0" transform="translate(37.729 20.549)"/>
    <path id="Path_203" data-name="Path 203" class="cls-2" d="M12.6,18.9a1.826,1.826,0,0,1-1.7,1.7,1.826,1.826,0,0,1-1.7-1.7,1.826,1.826,0,0,1,1.7-1.7,1.562,1.562,0,0,1,1.7,1.7Zm0,0" transform="translate(8.085 17.966)"/>
    <path id="Path_204" data-name="Path 204" class="cls-2" d="M34.2,21.2a1.7,1.7,0,0,1-3.4,0,1.826,1.826,0,0,1,1.7-1.7,1.674,1.674,0,0,1,1.7,1.7Zm0,0" transform="translate(32.339 20.549)"/>
    <path id="Path_205" data-name="Path 205" class="cls-2" d="M10.2,21.2a1.826,1.826,0,0,1-1.7,1.7,1.826,1.826,0,0,1-1.7-1.7,1.826,1.826,0,0,1,1.7-1.7,1.674,1.674,0,0,1,1.7,1.7Zm0,0" transform="translate(5.39 20.549)"/>
    <path id="Path_206" data-name="Path 206" class="cls-2" d="M15,21.2a1.826,1.826,0,0,1-1.7,1.7,1.826,1.826,0,0,1-1.7-1.7,1.826,1.826,0,0,1,1.7-1.7A1.674,1.674,0,0,1,15,21.2Zm0,0" transform="translate(10.78 20.549)"/>
    <path id="Path_207" data-name="Path 207" class="cls-2" d="M12.6,23.7a1.826,1.826,0,0,1-1.7,1.7,1.826,1.826,0,0,1-1.7-1.7A1.826,1.826,0,0,1,10.9,22a1.562,1.562,0,0,1,1.7,1.7Zm0,0" transform="translate(8.085 23.356)"/>
    <path id="Path_208" data-name="Path 208" class="cls-2" d="M17.4,23.7a1.826,1.826,0,0,1-1.7,1.7A1.826,1.826,0,0,1,14,23.7,1.826,1.826,0,0,1,15.7,22a1.562,1.562,0,0,1,1.7,1.7Zm0,0" transform="translate(13.474 23.356)"/>
    <path id="Path_209" data-name="Path 209" class="cls-2" d="M17.4,28.4a1.826,1.826,0,0,1-1.7,1.7,1.7,1.7,0,1,1,0-3.4c1.061.212,1.7.849,1.7,1.7Zm0,0" transform="translate(13.474 28.633)"/>
    <path id="Path_210" data-name="Path 210" class="cls-2" d="M15,26.116a1.826,1.826,0,0,1-1.7,1.7,1.7,1.7,0,1,1,0-3.4c1.061-.212,1.7.637,1.7,1.7Zm0,0" transform="translate(10.78 26.033)"/>
    <path id="Path_211" data-name="Path 211" class="cls-2" d="M19.8,26.116a1.826,1.826,0,0,1-1.7,1.7,1.7,1.7,0,1,1,0-3.4c1.061-.212,1.7.637,1.7,1.7Zm0,0" transform="translate(16.169 26.033)"/>
    <path id="Path_212" data-name="Path 212" class="cls-2" d="M22.2,28.4a1.826,1.826,0,0,1-1.7,1.7,1.7,1.7,0,1,1,0-3.4c1.061.212,1.7.849,1.7,1.7Zm0,0" transform="translate(18.864 28.633)"/>
    <path id="Path_213" data-name="Path 213" class="cls-2" d="M27,28.4a1.7,1.7,0,1,1-1.7-1.7c1.061.212,1.7.849,1.7,1.7Zm0,0" transform="translate(24.254 28.633)"/>
    <path id="Path_214" data-name="Path 214" class="cls-2" d="M24.6,26.116a1.826,1.826,0,0,1-1.7,1.7,1.7,1.7,0,0,1,0-3.4c1.061-.212,1.7.637,1.7,1.7Zm0,0" transform="translate(21.559 26.033)"/>
    <path id="Path_215" data-name="Path 215" class="cls-2" d="M29.4,26.116a1.7,1.7,0,1,1-1.7-1.7c1.061-.212,1.7.637,1.7,1.7Zm0,0" transform="translate(26.949 26.033)"/>
    <path id="Path_216" data-name="Path 216" class="cls-2" d="M24.6,30.9a1.826,1.826,0,0,1-1.7,1.7,1.7,1.7,0,1,1,0-3.4,1.562,1.562,0,0,1,1.7,1.7Zm0,0" transform="translate(21.559 31.44)"/>
    <path id="Path_217" data-name="Path 217" class="cls-2" d="M31.8,23.7a1.7,1.7,0,1,1-3.4,0A1.826,1.826,0,0,1,30.1,22a1.562,1.562,0,0,1,1.7,1.7Zm0,0" transform="translate(29.644 23.356)"/>
    <path id="Path_218" data-name="Path 218" class="cls-2" d="M36.6,23.7a1.7,1.7,0,1,1-3.4,0A1.826,1.826,0,0,1,34.9,22a1.674,1.674,0,0,1,1.7,1.7Zm0,0" transform="translate(35.034 23.356)"/>
    <path id="Path_219" data-name="Path 219" class="cls-2" d="M31.8,28.4a1.7,1.7,0,1,1-1.7-1.7c1.061.212,1.7.849,1.7,1.7Zm0,0" transform="translate(29.644 28.633)"/>
    <path id="Path_220" data-name="Path 220" class="cls-2" d="M34.2,26.116a1.7,1.7,0,1,1-1.7-1.7c1.061-.212,1.7.637,1.7,1.7Zm0,0" transform="translate(32.339 26.033)"/>
    <path id="Path_221" data-name="Path 221" class="cls-2" d="M41.4,23.7a1.7,1.7,0,1,1-3.4,0A1.826,1.826,0,0,1,39.7,22a1.562,1.562,0,0,1,1.7,1.7Zm0,0" transform="translate(40.423 23.356)"/>
    <path id="Path_222" data-name="Path 222" class="cls-1" d="M88.613,25.613,45.307,50.238,2,25.613,45.307,1.2Zm0,0" transform="translate(0)"/>
  </g>
</svg>
