<svg xmlns="http://www.w3.org/2000/svg" viewBox="-15471 -8347 28.602 20.4">
  <defs>
    <style>
      .cls-1 {
        fill: #52ae32;
        fill-rule: evenodd;
      }
    </style>
  </defs>
  <path id="Path_172" data-name="Path 172" class="cls-1" d="M28.6,2.42a12.488,12.488,0,0,1-3.38.8A5.387,5.387,0,0,0,27.809.372a12.4,12.4,0,0,1-3.734,1.247A6.3,6.3,0,0,0,19.8,0c-3.234,0-5.862,2.308-5.862,5.156a5.34,5.34,0,0,0,.146,1.173A17.608,17.608,0,0,1,1.982.949a4.677,4.677,0,0,0-.793,2.587A5.064,5.064,0,0,0,3.8,7.836a6.543,6.543,0,0,1-2.649-.651v.056a4.685,4.685,0,0,0,.4,1.861,5.7,5.7,0,0,0,4.3,3.183,7.13,7.13,0,0,1-1.544.186,7.16,7.16,0,0,1-1.106-.093,5.834,5.834,0,0,0,5.487,3.574A12.7,12.7,0,0,1,1.4,18.166,11.493,11.493,0,0,1,0,18.092,18.375,18.375,0,0,0,8.991,20.4c9.179,0,14.812-5.677,16.293-11.54a12.322,12.322,0,0,0,.4-3.108c0-.223,0-.447-.021-.67A11.188,11.188,0,0,0,28.6,2.42Z" transform="translate(-15471 -8347)"/>
</svg>
