<svg xmlns="http://www.w3.org/2000/svg" viewBox="-16745.803 -8389.455 241.242 59.537">
  <defs>
    <style>
      .cls-1 {
        fill: #52ae32;
      }

      .cls-2 {
        fill: #fff;
      }
    </style>
  </defs>
  <g id="Symbol_3_1" data-name="Symbol 3 – 1" transform="translate(-17056 -8430)">
    <path id="Path_176" data-name="Path 176" class="cls-1" d="M557.757,297.142h6.449v1.836H555.7V284.7h2.057Z" transform="translate(-172.075 -217.009)"/>
    <path id="Path_177" data-name="Path 177" class="cls-1" d="M653.794,286.551h-6.052v4.319h5.847v1.836h-5.847v4.436h6.243v1.836H645.7V284.7h8.109v1.851Z" transform="translate(-248.851 -217.009)"/>
    <path id="Path_178" data-name="Path 178" class="cls-1" d="M740.566,284.615c3.114,0,4.539,1.836,4.539,4.1s-1.513,4-4.818,4h-2.13v6.17H736.1V284.6h4.466Zm-2.409,6.258h2.336A2.208,2.208,0,0,0,743,288.625c0-1.043-.558-2.174-2.424-2.174h-2.409v4.422Z" transform="translate(-325.977 -216.923)"/>
    <path id="Path_179" data-name="Path 179" class="cls-2" d="M556,406.7h5.553c5.274,0,7.595,3.775,7.595,7.139a7.217,7.217,0,0,1-7.58,7.139H556Zm2.057,12.442h3.261c4.642,0,5.714-3.54,5.714-5.3,0-2.864-1.822-5.3-5.817-5.3h-3.158Z" transform="translate(-172.33 -321.087)"/>
    <path id="Path_180" data-name="Path 180" class="cls-2" d="M676.594,408.551h-6.052v4.319h5.847v1.836h-5.847v4.436h6.243v1.836H668.5V406.7h8.109v1.851Z" transform="translate(-268.304 -321.087)"/>
    <path id="Path_181" data-name="Path 181" class="cls-2" d="M749.9,421.111h-.426L743.3,406.7h2.057l4.289,10.033,4.275-10.033h2.027Z" transform="translate(-332.119 -321.087)"/>
    <path id="Path_182" data-name="Path 182" class="cls-2" d="M856.794,408.551h-6.052v4.319h5.847v1.836h-5.847v4.436h6.243v1.836H848.7V406.7h8.109v1.851Z" transform="translate(-422.032 -321.087)"/>
    <path id="Path_183" data-name="Path 183" class="cls-2" d="M938.857,419.142h6.449v1.836H936.8V406.7h2.056Z" transform="translate(-497.19 -321.087)"/>
    <path id="Path_184" data-name="Path 184" class="cls-2" d="M1015.868,405.4c4.716,0,7.683,3.349,7.683,7.33a7.683,7.683,0,1,1-7.683-7.33Zm0,12.78a5.451,5.451,0,1,0-5.553-5.45A5.359,5.359,0,0,0,1015.868,418.18Z" transform="translate(-558.107 -319.978)"/>
    <path id="Path_185" data-name="Path 185" class="cls-2" d="M1142.166,406.615c3.114,0,4.539,1.836,4.539,4.1s-1.513,4-4.818,4h-2.13v6.17H1137.7V406.6h4.465Zm-2.409,6.258h2.321a2.208,2.208,0,0,0,2.512-2.247c0-1.043-.558-2.174-2.424-2.174h-2.409Z" transform="translate(-668.582 -321.002)"/>
    <path id="Path_186" data-name="Path 186" class="cls-2" d="M1238.324,420.978h-2.057v-11.12h-.044l-4.392,5.523h-.338l-4.392-5.523h-.044v11.12H1225V406.7h1.924l4.73,5.861,4.76-5.861h1.91Z" transform="translate(-743.057 -321.087)"/>
    <path id="Path_187" data-name="Path 187" class="cls-2" d="M1356.194,408.551h-6.052v4.319h5.846v1.836h-5.846v4.436h6.243v1.836H1348.1V406.7h8.109v1.851Z" transform="translate(-848.071 -321.087)"/>
    <path id="Path_188" data-name="Path 188" class="cls-2" d="M1446.635,420.978h-1.763l-9.548-10.988v10.988H1433.4V406.7h1.63l9.666,11.061V406.7h1.924v14.278Z" transform="translate(-920.847 -321.087)"/>
    <path id="Path_189" data-name="Path 189" class="cls-2" d="M1557.128,408.636h-4.936v12.442h-2.057V408.636H1545.2V406.8h11.928Z" transform="translate(-1016.219 -321.173)"/>
    <path id="Path_190" data-name="Path 190" class="cls-2" d="M1650.707,408.735a4.815,4.815,0,0,0-3.349-1.484c-1.322,0-2.262.69-2.262,1.689,0,2.747,6.17,2.7,6.17,7.242a3.814,3.814,0,0,1-4,3.878,6.321,6.321,0,0,1-4-1.322v-2.6a4.824,4.824,0,0,0,3.775,2.071c1.587,0,2.321-1,2.321-1.807,0-2.953-6.17-3.29-6.17-7.2,0-2.321,1.719-3.8,4.333-3.8a5.817,5.817,0,0,1,3.188,1v2.336Z" transform="translate(-1099.827 -319.978)"/>
    <path id="Path_194" data-name="Path 194" class="cls-2" d="M222.854,158.2V134.377l-1.866-9.827-.867,2.527h-7.83l-1.645-6.052-1.087,5.964h-4.7V105.982l-1.616-6.037-1.484,5.7h-4.524L195.5,99.9l-1.307,5.832v18.656l-3.393-.558-1.66,2.776V108.861l-1.469-6.449-1.351,6.654h-4l-1.572-6.478-1.4,6.61v14.484l-.823,8.094h-3.951l-2.306-9.7-1.777,9.7v3.481s15.351,9.181,23.959,13.044,10.738,5.083,20.14,7.83C219.975,157.557,222.854,158.2,222.854,158.2Z" transform="translate(151.801 -59.355)"/>
    <path id="Path_195" data-name="Path 195" class="cls-1" d="M88.1,364.773l63.092.044s-5.656-.308-16-4.613-21.7-9.475-30.79-15.218-12.4-4.128-12.912-3.863-3.907,3.085.911,8.344S97.149,358.6,88.1,364.773Zm6.14-13.089s-1.822-2.909-.69-4.524,5.039,1.043,6.963,2.086,6.126,3.614,9.225,5.259,15.439,7.477,15.439,7.477c-13-3.907-24.914-10.958-28.263-12.045C93.535,348.864,94.24,351.685,94.24,351.685Z" transform="translate(222.098 -264.794)"/>
  </g>
</svg>
