<svg xmlns="http://www.w3.org/2000/svg" viewBox="-9106.183 3182.717 54.998 50.773">
  <defs>
    <style>
      .cls-1 {
        fill: #282e35;
      }

      .cls-2 {
        fill: #52ae32;
      }
    </style>
  </defs>
  <g id="Group_3340" data-name="Group 3340" transform="translate(-9106.183 3182.717)">
    <path id="Path_33" data-name="Path 33" class="cls-1" d="M126.98,49.77V29.423l-1.592-8.387-.74,2.156h-6.682l-1.4-5.165-.928,5.09h-4.012V5.19L110.244.038,108.978,4.9h-3.861L103.637,0l-1.116,4.977V20.9l-2.9-.476-1.417,2.369V7.647L96.943,2.156,95.8,7.835h-3.41L91.05,2.307,89.86,7.948V20.309l-.7,6.908H85.785l-1.968-8.274L82.3,27.217v2.971s13.1,7.835,20.447,11.132,9.164,4.338,17.188,6.682C124.535,49.206,126.98,49.77,126.98,49.77Z" transform="translate(-71.982)"/>
    <path id="Path_34" data-name="Path 34" class="cls-2" d="M0,261.447l53.844.038s-4.827-.263-13.652-3.936-18.516-8.086-26.276-12.988-10.581-3.523-11.02-3.3-3.335,2.633.777,7.121S7.722,256.169,0,261.447Zm5.228-11.17s-1.555-2.482-.589-3.861,4.3.89,5.942,1.78,5.228,3.084,7.873,4.488,13.176,6.381,13.176,6.381c-11.095-3.335-21.262-9.352-24.12-10.28S5.228,250.277,5.228,250.277Z" transform="translate(0 -210.711)"/>
  </g>
</svg>
