<svg xmlns="http://www.w3.org/2000/svg" viewBox="-6981 7142 55 55">
  <defs>
    <style>
      .cls-1 {
        fill: #52ae32;
      }

      .cls-2 {
        fill: #fff;
        fill-rule: evenodd;
      }
    </style>
  </defs>
  <g id="Group_3408" data-name="Group 3408" transform="translate(-7006 -56)">
    <rect id="Rectangle_3397" data-name="Rectangle 3397" class="cls-1" width="55" height="55" transform="translate(25 7198)"/>
    <path id="Path_468" data-name="Path 468" class="cls-2" d="M24.046,2.28a9.571,9.571,0,0,1-2.841.754A4.917,4.917,0,0,0,23.379.351,9.677,9.677,0,0,1,20.24,1.526,4.988,4.988,0,0,0,16.644,0a4.9,4.9,0,0,0-4.928,4.858,5.61,5.61,0,0,0,.123,1.1A14.147,14.147,0,0,1,1.666.894,4.791,4.791,0,0,0,1,3.332,4.879,4.879,0,0,0,3.192,7.384,5.029,5.029,0,0,1,.965,6.77v.053a4.851,4.851,0,0,0,3.946,4.753,5.382,5.382,0,0,1-1.3.175,5.388,5.388,0,0,1-.93-.088A4.93,4.93,0,0,0,7.3,15.031a9.89,9.89,0,0,1-6.121,2.087A8.633,8.633,0,0,1,0,17.048a14.166,14.166,0,0,0,7.559,2.175,13.729,13.729,0,0,0,13.7-10.874,12.94,12.94,0,0,0,.333-2.929c0-.21,0-.421-.018-.631A9.886,9.886,0,0,0,24.046,2.28Z" transform="translate(40 7216)"/>
  </g>
</svg>
