<svg xmlns="http://www.w3.org/2000/svg" viewBox="-6711 7142 55 55">
  <defs>
    <style>
      .cls-1 {
        fill: #52ae32;
      }

      .cls-2 {
        fill: #fff;
        stroke: #fff;
        stroke-width: 2px;
      }
    </style>
  </defs>
  <g id="Group_3411" data-name="Group 3411" transform="translate(-7006 -56)">
    <rect id="Rectangle_3400" data-name="Rectangle 3400" class="cls-1" width="55" height="55" transform="translate(295 7198)"/>
    <path id="Path_470" data-name="Path 470" class="cls-2" d="M7.737,16.147a.568.568,0,0,0,.4.175.506.506,0,0,0,.4-.175.559.559,0,0,0,0-.8L1.417,8.221,8.54,1.1a.559.559,0,0,0,0-.8.559.559,0,0,0-.8,0L3.865,4.158.2,7.819a.559.559,0,0,0,0,.8Zm0,0" transform="translate(330.544 7220.863) rotate(90)"/>
  </g>
</svg>
