<svg xmlns="http://www.w3.org/2000/svg" viewBox="-6891 7142 55 55">
  <defs>
    <style>
      .cls-1 {
        fill: #52ae32;
      }

      .cls-2 {
        fill: #fff;
      }
    </style>
  </defs>
  <g id="Group_3409" data-name="Group 3409" transform="translate(-7006 -56)">
    <rect id="Rectangle_3398" data-name="Rectangle 3398" class="cls-1" width="55" height="55" transform="translate(115 7198)"/>
    <path id="Path_469" data-name="Path 469" class="cls-2" d="M21.592,17.407l-3.415-3.415a1.767,1.767,0,0,0-2.488.049l-1.707,1.707a1.223,1.223,0,0,1-.341-.2,16.84,16.84,0,0,1-4.146-2.976A16.84,16.84,0,0,1,6.518,8.431c-.049-.1-.146-.244-.2-.341L7.494,6.919l.585-.585a1.768,1.768,0,0,0,.049-2.488L4.713.431a1.942,1.942,0,0,0-2.585.1L1.152,1.5l.049.049A4.734,4.734,0,0,0,.42,2.919,5.617,5.617,0,0,0,.03,4.334C-.409,8.09,1.3,11.5,5.933,16.09c6.39,6.39,11.561,5.9,11.805,5.9a7.461,7.461,0,0,0,1.415-.341,8,8,0,0,0,1.415-.781h0l.976-.976a1.767,1.767,0,0,0,.049-2.488Zm0,0" transform="translate(131.036 7214.016)"/>
  </g>
</svg>
