<svg xmlns="http://www.w3.org/2000/svg" viewBox="-16115.942 -4984 24.991 14.523">
  <defs>
    <style>
      .cls-1 {
        fill: #52ae32;
      }
    </style>
  </defs>
  <g id="Group_2910" data-name="Group 2910" transform="translate(-16115.939 -4984)">
    <path id="Path_167" data-name="Path 167" class="cls-1" d="M6.062,4.646a.764.764,0,0,0,.587.293.735.735,0,0,0,.538-.2.782.782,0,0,0,.049-1.125L4.3.293h0A.048.048,0,0,0,4.253.245h0l-.1-.1c-.049-.049-.1-.049-.1-.1H4.008A.18.18,0,0,1,3.862,0h-.1c-.1,0-.147,0-.2.049A.18.18,0,0,0,3.421.1H3.373c-.049,0-.049.049-.1.1-.049,0-.049.049-.1.049h0L3.128.293h0L.194,3.619A.83.83,0,0,0,.243,4.743a.735.735,0,0,0,.538.2.764.764,0,0,0,.587-.293l1.565-1.76v9.193a2.39,2.39,0,0,0,2.347,2.4H16.673a.782.782,0,0,0,0-1.565H5.28a.772.772,0,0,1-.782-.782V2.885Zm0,0" transform="translate(0)"/>
    <path id="Path_168" data-name="Path 168" class="cls-1" d="M31.844,9.829l-1.565,1.76V2.4A2.39,2.39,0,0,0,27.932,0H16.782A.772.772,0,0,0,16,.782a.772.772,0,0,0,.782.782h11.1a.856.856,0,0,1,.831.831v9.193l-1.565-1.76A.8.8,0,1,0,25.976,10.9L28.91,14.23h0a.048.048,0,0,0,.049.049h0c.049.049.1.049.1.1l.049.049.049.049h0a.9.9,0,0,0,.587,0h0l.049-.049.049-.049c.049-.049.1-.049.147-.1h0l.049-.049h0L32.968,10.9A.828.828,0,0,0,32.92,9.78a.693.693,0,0,0-1.076.049Z" transform="translate(-8.178)"/>
  </g>
</svg>
