<svg xmlns="http://www.w3.org/2000/svg" viewBox="-16003 -4984.317 18.658 13.84">
  <defs>
    <style>
      .cls-1 {
        fill: #52ae32;
      }
    </style>
  </defs>
  <g id="Group_2911" data-name="Group 2911" transform="translate(-16003 -4984.314)">
    <g id="Group_2887" data-name="Group 2887" transform="translate(0 -0.003)">
      <path id="Path_169" data-name="Path 169" class="cls-1" d="M5.37,5.461,8.647,2.548a1.422,1.422,0,0,0,.546-1.092,1.369,1.369,0,0,0-.364-1A1.546,1.546,0,0,0,6.735.364L.546,5.825h0a.089.089,0,0,0-.091.091h0L.273,6.1c-.091.091-.091.182-.182.182v.091A.334.334,0,0,1,0,6.644v.273H0a.334.334,0,0,0,.091.273.334.334,0,0,0,.091.273v.091c0,.091.091.091.182.182,0,.091.091.091.091.182h0l.091.091h0l6.189,5.461a1.542,1.542,0,0,0,2.093-.091,1.369,1.369,0,0,0,.364-1,1.422,1.422,0,0,0-.546-1.092L5.37,8.373M8.647,2.548" transform="translate(0 0.003)"/>
    </g>
    <g id="Group_2888" data-name="Group 2888" transform="translate(1.547 5.643)">
      <path id="Path_170" data-name="Path 170" class="cls-1" d="M17.446,8.931H3.065a1.365,1.365,0,1,1,0-2.731H17.446a1.365,1.365,0,0,1,0,2.731Z" transform="translate(-1.7 -6.2)"/>
    </g>
  </g>
</svg>
